<!-- created by svgstack.com | Attribution is required. --><svg width="201" height="201" viewBox="0 0 201 201" fill="none" xmlns="http://www.w3.org/2000/svg"><path d="M101.212 0.401123H100.757C45.6542 0.401123 0.984619 45.0839 0.984619 100.203V100.658C0.984619 155.777 45.6542 200.46 100.757 200.46H101.212C156.315 200.46 200.985 155.777 200.985 100.658V100.203C200.985 45.0839 156.315 0.401123 101.212 0.401123Z" fill="#383D38"/><path d="M131.931 41.1025H70.0453C52.9483 41.1025 39.0394 55.0155 39.0394 72.1175V128.751C39.0394 145.853 52.9483 159.765 70.0453 159.765H131.931C149.028 159.765 162.937 145.853 162.937 128.751V72.1175C162.937 55.0155 149.028 41.1025 131.931 41.1025ZM49.9773 72.1175C49.9773 61.0503 58.9813 52.0436 70.0453 52.0436H131.931C142.995 52.0436 151.999 61.0503 151.999 72.1175V128.751C151.999 139.818 142.995 148.824 131.931 148.824H70.0453C58.9813 148.824 49.9773 139.818 49.9773 128.751V72.1175Z" fill="white"/><path d="M100.988 129.276C116.887 129.276 129.829 116.337 129.829 100.427C129.829 84.5163 116.894 71.5776 100.988 71.5776C85.0824 71.5776 72.1475 84.5163 72.1475 100.427C72.1475 116.337 85.0824 129.276 100.988 129.276ZM100.988 82.5257C110.861 82.5257 118.891 90.5581 118.891 100.434C118.891 110.31 110.861 118.342 100.988 118.342C91.1154 118.342 83.0854 110.31 83.0854 100.434C83.0854 90.5581 91.1154 82.5257 100.988 82.5257Z" fill="white"/><path d="M132.499 76.2387C136.78 76.2387 140.269 72.7552 140.269 68.4657C140.269 64.1761 136.787 60.6926 132.499 60.6926C128.21 60.6926 124.728 64.1761 124.728 68.4657C124.728 72.7552 128.21 76.2387 132.499 76.2387Z" fill="white"/></svg> 