<!-- created by svgstack.com | Attribution is required. --><svg width="201" height="201" viewBox="0 0 201 201" fill="none" xmlns="http://www.w3.org/2000/svg"><path d="M100.507 200.473H100.066C45.0484 200.473 0.286499 155.698 0.286499 100.664V100.224C0.286499 45.1893 45.0484 0.414307 100.066 0.414307H100.507C155.525 0.414307 200.287 45.1893 200.287 100.224V100.664C200.287 155.698 155.525 200.473 100.507 200.473ZM100.066 7.18609C48.7785 7.18609 7.05629 48.9205 7.05629 100.224V100.664C7.05629 151.967 48.7785 193.701 100.066 193.701H100.507C151.794 193.701 193.517 151.967 193.517 100.664V100.224C193.517 48.9205 151.794 7.18609 100.507 7.18609H100.066Z" fill="#383D38"/><path d="M130.185 43.124H70.3944C53.8761 43.124 40.438 56.566 40.438 73.0892V127.805C40.438 144.328 53.8761 157.77 70.3944 157.77H130.185C146.703 157.77 160.142 144.328 160.142 127.805V73.0892C160.142 56.566 146.703 43.124 130.185 43.124ZM51.0057 73.0892C51.0057 62.3965 59.7049 53.6947 70.3944 53.6947H130.185C140.875 53.6947 149.574 62.3965 149.574 73.0892V127.805C149.574 138.498 140.875 147.2 130.185 147.2H70.3944C59.7049 147.2 51.0057 138.498 51.0057 127.805V73.0892Z" fill="#383D38"/><path d="M100.29 128.313C115.651 128.313 128.154 115.812 128.154 100.44C128.154 85.0683 115.657 72.5676 100.29 72.5676C84.9225 72.5676 72.4255 85.0683 72.4255 100.44C72.4255 115.812 84.9225 128.313 100.29 128.313ZM100.29 83.1451C109.829 83.1451 117.587 90.9056 117.587 100.447C117.587 109.988 109.829 117.749 100.29 117.749C90.7513 117.749 82.9931 109.988 82.9931 100.447C82.9931 90.9056 90.7513 83.1451 100.29 83.1451Z" fill="#383D38"/><path d="M130.734 77.071C134.87 77.071 138.241 73.7056 138.241 69.5612C138.241 65.4169 134.877 62.0513 130.734 62.0513C126.591 62.0513 123.226 65.4169 123.226 69.5612C123.226 73.7056 126.591 77.071 130.734 77.071Z" fill="#383D38"/></svg> 